<svg width="64" height="64" viewBox="0 0 64 64" fill="none" xmlns="http://www.w3.org/2000/svg">
  <defs>
    <linearGradient id="fa-fav-bg" x1="0" y1="0" x2="64" y2="64" gradientUnits="userSpaceOnUse">
      <stop offset="0%" stop-color="#14161C"/>
      <stop offset="100%" stop-color="#06070A"/>
    </linearGradient>
    <linearGradient id="fa-fav-bell" x1="0" y1="0" x2="1" y2="1">
      <stop offset="0%" stop-color="#FDE68A"/>
      <stop offset="100%" stop-color="#F59E0B"/>
    </linearGradient>
  </defs>

  <rect width="64" height="64" rx="14" fill="url(#fa-fav-bg)"/>

  <g stroke-linecap="round">
    <line x1="15" y1="20" x2="15" y2="46" stroke="#38BDF8" stroke-width="2.2" opacity="0.75"/>
    <rect x="11.5" y="27" width="7" height="13" rx="1.8" fill="#38BDF8" opacity="0.9"/>

    <line x1="28" y1="30" x2="28" y2="52" stroke="#38BDF8" stroke-width="2.2"/>
    <rect x="24.5" y="36" width="7" height="12" rx="1.8" fill="#38BDF8"/>
  </g>

  <path
    d="M40 20c0-4.4 3.6-8 8-8s8 3.6 8 8c0 6 2.3 8.6 3.8 10.1.8.8.3 2.3-.9 2.3H37.1c-1.2 0-1.7-1.5-.9-2.3C37.7 28.6 40 26 40 20z"
    fill="url(#fa-fav-bell)"
  />
  <path
    d="M44.6 34.6a3.4 3.4 0 0 0 6.1 0"
    stroke="#06070A"
    stroke-width="1.8"
    stroke-linecap="round"
  />
  <circle cx="55" cy="11.5" r="2.3" fill="#FDE68A"/>
</svg>
