<svg width="40" height="40" viewBox="0 0 40 40" fill="none" xmlns="http://www.w3.org/2000/svg">
  <defs>
    <linearGradient id="fa-bg" x1="0" y1="0" x2="40" y2="40" gradientUnits="userSpaceOnUse">
      <stop offset="0%" stop-color="#14161C"/>
      <stop offset="100%" stop-color="#06070A"/>
    </linearGradient>
    <linearGradient id="fa-bell" x1="0" y1="0" x2="1" y2="1">
      <stop offset="0%" stop-color="#FDE68A"/>
      <stop offset="100%" stop-color="#F59E0B"/>
    </linearGradient>
    <filter id="fa-glow" x="-80%" y="-80%" width="260%" height="260%">
      <feGaussianBlur stdDeviation="1.5" result="blur"/>
      <feMerge>
        <feMergeNode in="blur"/>
        <feMergeNode in="SourceGraphic"/>
      </feMerge>
    </filter>
  </defs>

  <rect x="0.5" y="0.5" width="39" height="39" rx="9" fill="url(#fa-bg)" stroke="#262A33"/>

  <g stroke-linecap="round">
    <line x1="9" y1="12" x2="9" y2="30" stroke="#38BDF8" stroke-width="1.3" opacity="0.7"/>
    <rect x="6.7" y="17" width="4.6" height="8.5" rx="1.1" fill="#38BDF8" opacity="0.85"/>

    <line x1="18" y1="20" x2="18" y2="34" stroke="#38BDF8" stroke-width="1.3"/>
    <rect x="15.7" y="24" width="4.6" height="7.5" rx="1.1" fill="#38BDF8"/>

    <line x1="27" y1="16" x2="27" y2="27" stroke="#FCD34D" stroke-width="1.3" opacity="0.9"/>
    <rect x="24.7" y="18" width="4.6" height="6.5" rx="1.1" fill="#FCD34D"/>
  </g>

  <g filter="url(#fa-glow)">
    <path
      d="M30.6 12.4c0-2.7 2.2-4.9 4.9-4.9s4.9 2.2 4.9 4.9c0 3.7 1.4 5.3 2.3 6.2.5.5.2 1.4-.5 1.4H28.8c-.7 0-1-.9-.5-1.4.9-.9 2.3-2.5 2.3-6.2z"
      transform="translate(-6.4 -3.4) scale(0.86)"
      fill="url(#fa-bell)"
    />
    <path
      d="M33.4 21.2a2 2 0 0 0 3.6 0"
      transform="translate(-6.4 -3.4) scale(0.86)"
      stroke="#06070A"
      stroke-width="1.1"
      stroke-linecap="round"
    />
    <circle cx="35.2" cy="6.3" r="1.4" fill="#FDE68A"/>
  </g>
</svg>
